<?xml version="1.0" encoding="utf-8"?>
<!-- Generator: Adobe Illustrator 25.2.3, SVG Export Plug-In . SVG Version: 6.00 Build 0)  -->
<svg version="1.1" id="logo_1_" xmlns="http://www.w3.org/2000/svg" xmlns:xlink="http://www.w3.org/1999/xlink" x="0px" y="0px"
	 viewBox="0 0 100 81.6" style="enable-background:new 0 0 100 81.6;" xml:space="preserve">
<style type="text/css">
	.st0{fill:none;stroke:#003800;stroke-width:1.3;stroke-linecap:square;stroke-linejoin:round;stroke-miterlimit:10;}
	.st1{fill:none;stroke:#003800;stroke-width:1.3;stroke-linejoin:round;stroke-miterlimit:10;}
	.st2{fill:#003800;}
	.st3{fill:#FFFFFF;}
	.st4{fill:none;stroke:#003800;stroke-width:0.75;stroke-linecap:round;stroke-miterlimit:10;}
	.st5{fill:#003800;stroke:#003800;stroke-width:0.75;stroke-linecap:round;stroke-miterlimit:10;}
	.st6{fill:#FFFFFF;stroke:#003800;stroke-width:1.3;stroke-linejoin:round;stroke-miterlimit:10;}
</style>
<g id="copa_con_ojos">
	<g id="copa">
		<path class="st0" d="M28.8,5.7c0,0-11.9,14.5-14.9,19.5c-0.4,0.7-0.6,1.5-0.6,2.3c0.5,9.1,5,15.1,7.1,17.3c0.7,0.7,1,1.6,0.9,2.5
			c-0.7,5.6-5.6,18.5-7,21.5c-0.1,0.3-0.3,0.5-0.5,0.7c-0.6,0.5-1.7,1.1-2.3,1.3c-1.5,0.9-9.3-2.3-10.6,0.1
			c-1.3,2.6,6.4,5.7,12.3,7.7c5.6,1.9,12.3,3.1,14.1,1.7c0.4-0.3,0.4-0.8,0.2-1.2c-1.2-2-7.9-4.4-9.1-6.2c-0.7-0.9-1-2-0.9-2.6
			c1-5.9,3.6-13.3,7.3-21.7c0.2-0.6,0.8-1,1.5-1.1c7.7-1.2,13-4.7,17.3-9.1c0.5-0.5,0.8-1.2,0.9-1.9c0.8-5.6,0.2-25.3,0.4-25.2
			C43.6,13.1,29,8.2,28.8,5.7z"/>
		<path class="st1" d="M28.8,5.7c6,0.3,11.2,2.1,16.1,5.4"/>
		<path class="st2" d="M18.9,74.2c6.5,6.1-17.2,1.6-17.5-3c-2.9,4.6,26.8,12.4,26,8.3C26.8,78.4,23.2,75.8,18.9,74.2z"/>
		<path class="st2" d="M34.4,42.3c0-0.1,0-0.1,0.1-0.2c0.1-0.1,0.3-0.2,0.5-0.2c0.1,0,0.1,0.1,0.2,0.1c2.2-1.3,4.6-3,7.1-5.1
			c-1.8-0.9-3.6-1.8-5.4-2.6c0,0,0,0-0.1,0c-0.2,0.1-0.4,0.1-0.6-0.1C36.1,34.3,36,34.1,36,34c-4.8-2.1-9.4-3.6-14.1-4.7
			c0,0,0,0,0,0.1c0,0.2-0.1,0.3-0.1,0.5c-0.1,0.1-0.1,0.3-0.3,0.3c-0.2,0.1-0.4,0-0.6-0.1c-0.1-0.1-0.2-0.3-0.2-0.5
			c0-0.1,0.1-0.3,0.2-0.4c0,0,0-0.1,0.1-0.1c-1.8-0.4-3.7-0.8-5.6-1.1c0.7,3.8,1.5,7.3,2.9,10.3c0,0,0-0.1,0.1-0.1
			c0.1-0.1,0.3-0.2,0.5-0.1c0.2,0.1,0.3,0.3,0.3,0.4c0,0.2-0.1,0.3-0.1,0.5c-0.1,0.1-0.1,0.3-0.2,0.3c0.4,0.6,0.8,1.3,1.3,1.8
			c1.2,1.5,2.9,2.5,4.7,3.1c0-0.1,0-0.2,0-0.3c0-0.1,0.1-0.3,0.2-0.4c0-0.1,0.1-0.1,0.1-0.2c0.1-0.1,0.3-0.2,0.5-0.1
			c0.2,0.1,0.3,0.3,0.3,0.4c0,0.2-0.1,0.3-0.1,0.5c0,0.1-0.1,0.2-0.1,0.2c1.5,0.3,3,0.3,4.5-0.1c1.3-0.4,2.6-1,4-1.7
			C34.2,42.5,34.3,42.4,34.4,42.3z M20.1,34.5c-0.1,0.1-0.4,0.1-0.6,0c-0.2-0.1-0.3-0.3-0.3-0.5c0-0.1,0-0.3,0.1-0.4
			c0-0.1,0-0.1,0.1-0.2c0.1-0.1,0.3-0.3,0.5-0.2c0.2,0,0.3,0.2,0.4,0.4c0,0.2,0,0.3,0,0.5C20.3,34.3,20.2,34.4,20.1,34.5z
			 M20.8,31.8c0-0.3,0.2-0.5,0.4-0.7l0.2,0c0.2-0.1,0.5,0.1,0.5,0.3c0.1,0.2,0,0.4-0.1,0.6c-0.1,0.2-0.3,0.4-0.6,0.4
			C21,32.4,20.8,32.1,20.8,31.8z M20.9,36.6c-0.1,0.2-0.3,0.4-0.6,0.4c-0.3,0-0.5-0.3-0.5-0.6c0-0.3,0.2-0.5,0.4-0.7l0.2,0
			c0.2-0.1,0.5,0.1,0.5,0.3C21,36.2,21,36.4,20.9,36.6z M29.4,32.3l0.2,0c0.2-0.1,0.5,0.1,0.5,0.3c0.1,0.2,0,0.4-0.1,0.6
			c-0.1,0.2-0.3,0.4-0.6,0.4c-0.3,0-0.5-0.3-0.5-0.6C29,32.7,29.2,32.5,29.4,32.3z M27.8,34.3c0.1-0.1,0.3-0.2,0.5-0.1
			c0.2,0.1,0.3,0.3,0.3,0.4c0,0.2-0.1,0.3-0.1,0.5c-0.1,0.1-0.1,0.3-0.3,0.3c-0.2,0.1-0.4,0-0.6-0.1c-0.1-0.1-0.2-0.3-0.2-0.5
			c0-0.1,0.1-0.3,0.2-0.4C27.7,34.4,27.8,34.3,27.8,34.3z M26.8,39.7c-0.1,0.1-0.4,0.1-0.6,0S26,39.4,26,39.3c0-0.1,0-0.3,0.1-0.4
			c0-0.1,0-0.1,0.1-0.2c0.1-0.1,0.3-0.3,0.5-0.2c0.2,0,0.3,0.2,0.4,0.4c0,0.2,0,0.3,0,0.5C27,39.5,26.9,39.6,26.8,39.7z M27.5,37
			c0-0.3,0.2-0.5,0.4-0.7l0.2,0c0.2-0.1,0.5,0.1,0.5,0.3c0.1,0.2,0,0.4-0.1,0.6c-0.1,0.2-0.3,0.4-0.6,0.4
			C27.7,37.6,27.5,37.3,27.5,37z M27.6,41.8c-0.1,0.2-0.3,0.4-0.6,0.4c-0.3,0-0.5-0.3-0.5-0.6c0-0.3,0.2-0.5,0.4-0.7l0.2,0
			c0.2-0.1,0.5,0.1,0.5,0.3C27.7,41.4,27.7,41.6,27.6,41.8z M36.6,40.3c0.1,0.2,0,0.4,0,0.6c-0.1,0.2-0.3,0.4-0.5,0.4
			c-0.3,0-0.5-0.3-0.5-0.6c0-0.3,0.2-0.5,0.3-0.8l0.2,0C36.2,39.9,36.5,40.1,36.6,40.3z M36.5,35.3l0.2,0c0.2-0.1,0.5,0,0.6,0.2
			c0.1,0.2,0,0.4,0,0.6c-0.1,0.2-0.3,0.4-0.5,0.4c-0.3,0-0.5-0.3-0.5-0.6C36.1,35.8,36.3,35.5,36.5,35.3z M34.8,38.4
			c0-0.1,0-0.3,0.1-0.4c0-0.1,0-0.1,0-0.2c0.1-0.2,0.3-0.3,0.5-0.2c0.2,0,0.4,0.2,0.4,0.4c0.1,0.2,0,0.3,0,0.5c0,0.1,0,0.3-0.2,0.4
			c-0.1,0.1-0.4,0.1-0.5,0C34.9,38.8,34.8,38.6,34.8,38.4z"/>
	</g>
	<g id="ojos_copa">
		<g>
			<path class="st2" d="M35.9,15.5l5.5,2.1l-0.5,1.3c-0.4,1.2-1.6,1.9-2.8,1.9c-0.4,0-0.7-0.1-1.1-0.2v0c-1.5-0.6-2.3-2.3-1.7-3.8
				L35.9,15.5 M35.4,14.6l-0.3,0.7l-0.5,1.3c-0.7,1.9,0.2,4,2.1,4.8c0.4,0.2,0.9,0.2,1.3,0.2c1.5,0,2.9-1,3.5-2.4l0.5-1.3l0.3-0.7
				l-0.7-0.3l-5.5-2.1L35.4,14.6L35.4,14.6z"/>
		</g>
		<g>
			<path class="st3" d="M35.2,16.2l3.1-7.9C38.7,7,40,6.1,41.4,6.1c0.4,0,0.8,0.1,1.2,0.2c1.7,0.7,2.6,2.6,1.9,4.3l-3.1,7.9
				L35.2,16.2z"/>
			<path class="st2" d="M41.4,6.5c0.4,0,0.7,0.1,1.1,0.2h0c1.5,0.6,2.3,2.3,1.7,3.8l-2.9,7.6L35.7,16l2.9-7.6
				C39.1,7.2,40.2,6.5,41.4,6.5 M41.4,5.7c-1.5,0-2.9,1-3.5,2.4L35,15.7l-0.3,0.7l0.7,0.3l5.5,2.1l0.7,0.3l0.3-0.7l2.9-7.6
				c0.7-1.9-0.2-4-2.1-4.8C42.3,5.8,41.8,5.7,41.4,5.7L41.4,5.7z"/>
		</g>
		<path class="st2" d="M35.4,16.6l5.5,2.1l2.2-5.8c1-2.5-2.7-3.8-3.7-1.4l-0.6,1.7l1.2,1.2l-1.6-0.1l-0.9,2.4L35.7,16L35.4,16.6z"/>
		<path class="st4" d="M40.1,4.5c2.1-1.2,5.3,0.8,5.3,2.7"/>
		<g>
			<path class="st2" d="M27.5,11.8L33,14l-0.5,1.3c-0.5,1.2-1.6,1.9-2.8,1.9c-0.4,0-0.7-0.1-1.1-0.2c-1.5-0.6-2.3-2.3-1.7-3.8
				L27.5,11.8 M27.1,10.9l-0.3,0.7l-0.5,1.3c-0.7,1.9,0.2,4.1,2.1,4.8c0.4,0.2,0.9,0.3,1.3,0.3c1.5,0,2.9-0.9,3.5-2.3l0.5-1.3
				l0.3-0.7l-0.7-0.3l-5.5-2.2L27.1,10.9L27.1,10.9z"/>
		</g>
		<g>
			<path class="st3" d="M26.9,12.5l3.1-7.9c0.5-1.3,1.7-2.1,3.1-2.1c0.4,0,0.8,0.1,1.2,0.2c1.7,0.7,2.6,2.6,1.9,4.3l-3.1,7.9
				L26.9,12.5z"/>
			<path class="st2" d="M33,2.8c0.4,0,0.7,0.1,1.1,0.2h0c1.5,0.6,2.3,2.3,1.7,3.8l-2.9,7.6l-5.5-2.1l2.9-7.6
				C30.7,3.5,31.8,2.8,33,2.8 M33,2.1c-1.5,0-2.9,1-3.5,2.4L26.6,12l-0.3,0.7l0.7,0.3l5.5,2.1l0.7,0.3l0.3-0.7l2.9-7.6
				c0.7-1.9-0.2-4-2.1-4.8C33.9,2.1,33.5,2.1,33,2.1L33,2.1z"/>
		</g>
		<path class="st2" d="M27.1,12.9l5.5,2.1l2.2-5.8c1-2.5-2.7-3.8-3.7-1.4l-0.6,1.7l1.2,1.2l-1.6-0.1L29.2,13l-1.9-0.7L27.1,12.9z"/>
		<path class="st4" d="M31.8,0.8c2.1-1.2,5.3,0.8,5.3,2.7"/>
		<path class="st5" d="M22.1,19.6c1.3,0,2.5-0.4,3.4-1.5"/>
		<path class="st5" d="M38,23c0.1,1.5,0.6,2.6,1.5,3.4"/>
		<path class="st4" d="M23.9,19.3c2.2,6.3,8.6,8.5,14.6,5.6"/>
	</g>
</g>
<g id="mate_con_ojos">
	<g id="mate">
		<g>
			<path class="st2" d="M50.4,26.9c0.2,0.9,0.6,1.8,1.1,2.7c3.4,5.3,13.3,9.5,22.6,9.5c3.5,0,8.1-0.6,11.8-3.1
				c0.7,4.1,0.2,6.1-0.8,10c-2,8-9.5,13.8-17.9,13.8c-2,0-4-0.3-6-0.9c-10.9-3.3-16.8-14.5-15.1-22.5C46.7,33.2,47.8,30.2,50.4,26.9
				 M52.2,22.9c-5.1,5.2-6.5,9.3-7.3,13.2c-1.8,9.1,4.8,20.6,16,24c2.2,0.6,4.3,0.9,6.3,0.9c9.6,0,17.2-6.7,19.2-14.7
				c1.2-4.6,1.7-6.9,0.4-12.7c-3,3-7.7,4.2-12.6,4.2C62.2,37.8,48.5,30.5,52.2,22.9L52.2,22.9z"/>
		</g>
		<g>
			<path class="st3" d="M72.9,32.8c-1.7,0-3.4-0.2-5.1-0.5c-3.7-0.7-7.1-2-9.4-3.8c-2.1-1.6-3.2-3.5-2.9-5c0.5-3,3.6-4.8,8.3-4.8
				c1.3,0,2.7,0.1,4.1,0.4c8.1,1.5,16.1,6.3,15.6,9.4C83,31,78.6,32.8,72.9,32.8z"/>
			<path class="st2" d="M63.8,19.3L63.8,19.3c1.2,0,2.6,0.1,4,0.4c3.8,0.7,7.8,2.2,10.9,4.1c3.3,2,4.3,3.8,4.2,4.6
				c-0.3,1.8-3.9,3.7-9.9,3.7c-1.7,0-3.3-0.2-5-0.5c-7.6-1.4-12.3-5.4-11.8-8.1C56.6,20.9,59.5,19.3,63.8,19.3 M63.8,18
				c-5.4,0-8.4,2.3-8.9,5.3c-0.7,3.7,4.7,8.1,12.8,9.6c1.8,0.3,3.6,0.5,5.2,0.5c5.9,0,10.7-1.9,11.2-4.8c0.7-3.7-8-8.7-16.1-10.2
				C66.5,18.2,65,18,63.8,18L63.8,18z"/>
		</g>
		<path class="st6" d="M75.6,27.9c3.6-9.8,12-23.1,20.5-24.3c2.6-0.4,3.5,0.8,3.1,1.8c-8.9,3.1-16.8,16.4-19.6,26.2"/>
		<g>
			<path class="st2" d="M79.1,31.5c-2.1-3.3-4.6-6.5-7.4-9.3c-2.4-2.5-3.7-5.4-7.2-5.8c-2.4-0.3-4.3-0.3-6.7,1.7c-1.1,0.9-2,4-2,5.4
				c0,1.3,0.8,2.8,1.5,3.9c1.1,1.4,8.2,4.3,10,4.7C73,33.4,77,32.6,79.1,31.5"/>
		</g>
	</g>
	<g id="ojos_mate">
		<g>
			<path class="st3" d="M58,47.1c-0.3,0-0.5,0-0.8-0.1l-0.4-0.1l-0.1-0.2c-0.3-0.7-0.8-1.3-1.5-1.7L55,45l0-0.2
				c-0.1-0.5-0.1-1,0-1.4l2.7-9.1c0.4-1.2,1.5-2.1,2.7-2.1c0.3,0,0.5,0,0.8,0.1l0.2,0.1c1.5,0.4,2.4,2,1.9,3.5l-2.7,9.1
				C60.3,46.3,59.2,47.1,58,47.1C58,47.1,58,47.1,58,47.1z"/>
			<path class="st2" d="M60.4,32.6c0.2,0,0.5,0,0.7,0.1l0.2,0.1c1.3,0.4,2.1,1.8,1.7,3.1L60.3,45C60,46.1,59,46.8,58,46.8
				c-0.2,0-0.5,0-0.7-0.1l-0.2-0.1c0,0,0,0-0.1,0c-0.4-0.8-0.9-1.4-1.7-1.8c-0.1-0.4-0.1-0.8,0-1.2l2.7-9.1
				C58.3,33.3,59.3,32.6,60.4,32.6 M60.4,31.9c-1.4,0-2.7,1-3.1,2.3l-2.7,9.1c-0.2,0.5-0.2,1.1,0,1.6l0.1,0.3l0.3,0.2
				c0.6,0.4,1.1,0.9,1.4,1.5l0.1,0.3l0.3,0.1c0,0,0.1,0,0.1,0l0.2,0.1c0.3,0.1,0.6,0.1,0.9,0.1c1.4,0,2.7-1,3.1-2.3l2.7-9.1
				c0.5-1.7-0.5-3.5-2.2-4L61.3,32C61,31.9,60.7,31.9,60.4,31.9L60.4,31.9z"/>
		</g>
		<path class="st4" d="M52.4,44.3c3.4,0.3,4.7,2.2,5,5"/>
		<g>
			<path class="st2" d="M58.7,38.3l2-0.7l0.3-0.9l0.2-0.8c0.3-0.9-0.3-1.9-1.2-2.1c-0.9-0.3-1.9,0.3-2.1,1.2l-2,6.9
				c-0.3,0.9,0.3,1.9,1.2,2.1c0.9,0.3,1.9-0.3,2.1-1.2l1-3.5L58.7,38.3z"/>
		</g>
		<g>
			<path class="st3" d="M65.4,49.4l0.1-0.4L65.4,49.4l-0.3-0.1c-0.7-0.2-1.3-0.7-1.7-1.4c-0.4-0.7-0.5-1.4-0.2-2.2l2.7-9.1
				c0.4-1.2,1.5-2.1,2.7-2.1c0.3,0,0.5,0,0.8,0.1l0.2,0.1c1.5,0.4,2.4,2,1.9,3.5l-2.7,9.1c-0.1,0.5-0.4,0.9-0.7,1.2L68,48.8l-0.3,0
				c-0.7,0-1.4,0.2-2,0.6l-0.1,0.1L65.4,49.4z"/>
			<path class="st2" d="M68.6,35c0.2,0,0.5,0,0.7,0.1l0.2,0.1c1.3,0.4,2.1,1.8,1.7,3.1l-2.7,9.1c-0.1,0.4-0.3,0.8-0.6,1.1
				c0,0-0.1,0-0.1,0c-0.8,0-1.6,0.2-2.2,0.6c0,0,0,0-0.1,0L65.2,49c-1.3-0.4-2.1-1.8-1.7-3.1l2.7-9.1C66.5,35.7,67.5,35,68.6,35
				 M68.6,34.2L68.6,34.2c-1.4,0-2.7,1-3.1,2.3l-2.7,9.1c-0.5,1.7,0.5,3.5,2.2,4l0.2,0.1l0,0l0.1,0l0.3,0.1l0.3-0.2
				c0.6-0.4,1.2-0.5,1.8-0.5l0.1,0l0.3,0l0.2-0.2c0.4-0.4,0.7-0.9,0.8-1.4l2.7-9.1c0.5-1.7-0.5-3.5-2.2-4l-0.2-0.1
				C69.2,34.3,68.9,34.2,68.6,34.2L68.6,34.2z"/>
		</g>
		<path class="st4" d="M70.6,49.6c-3-1.6-5.2-0.7-6.9,1.5"/>
		<g>
			<path class="st2" d="M66.9,40.7l2-0.7l0.3-0.9l0.2-0.8c0.3-0.9-0.3-1.9-1.2-2.1c-0.9-0.3-1.9,0.3-2.1,1.2l-2,6.9
				c-0.3,0.9,0.3,1.9,1.2,2.1c0.9,0.3,1.9-0.3,2.1-1.2l1-3.5L66.9,40.7z"/>
		</g>
		<ellipse transform="matrix(0.2791 -0.9603 0.9603 0.2791 -7.2962 95.6643)" class="st2" cx="60.1" cy="52.7" rx="2.5" ry="1.9"/>
	</g>
</g>
</svg>
